<svg xmlns="http://www.w3.org/2000/svg" width="256" height="256"><path fill-opacity=".016" d="M0 128.004v128.004l128.25-.254 128.25-.254.254-127.75L257.008 0H0v128.004m.485.496c0 70.4.119 99.053.265 63.672.146-35.38.146-92.98 0-128C.604 29.153.485 58.1.485 128.5" fill="#1976D2" fill-rule="evenodd"/><path fill-opacity=".263" d="M85.603 33.207c-.376 4.514-.813 8.336-.97 8.494-.158.157-6.102-.834-13.21-2.202-7.108-1.369-13.321-2.491-13.807-2.494-.505-.003-.58 6.143-.176 14.307l.709 14.311-9.02-.431-9.02-.431.695 2.426c.842 2.937 16.203 20.79 17.9 20.803.662.006 11.236-8.795 23.498-19.556 15.61-13.699 22.295-20.188 22.297-21.642.001-1.824-15.992-21.564-17.605-21.73-.334-.034-.914 3.631-1.291 8.145M123 50.522c-34.903 7.162-61.333 33.309-68.696 67.961-1.064 5.007-1.365 10.885-1.053 20.517.385 11.868.825 14.649 3.642 23 4.317 12.798 9.934 22.314 19.318 32.735 11.85 13.156 23.861 20.708 40.561 25.501 11.171 3.206 33.311 3.199 44.513-.016 24.45-7.015 43.402-23.201 54.926-46.91 2.19-4.505 3.731-8.594 3.426-9.088-.305-.493-16.548-7.127-36.097-14.741l-35.542-13.844 33.416-17.067c18.378-9.386 33.898-17.84 34.488-18.785.849-1.36.333-2.984-2.473-7.771C195.083 60.712 157.462 43.45 123 50.522m6.898 21.736c-3.943 2.62-7.898 9.779-7.898 14.297 0 1.722 1.046 5.114 2.325 7.538 7.242 13.728 27.497 10.75 31.124-4.577l.706-2.983-2.166 2.753c-5.059 6.432-13.592 7.385-19.077 2.129-5.74-5.498-6.114-12.846-.937-18.388 2.313-2.477 2.509-3.027 1.074-3.027-.964 0-3.282 1.016-5.151 2.258" fill="#1976D2" fill-rule="evenodd"/><path fill-opacity=".238" d="M86.04 33.25c-.047 10.262 1.545 9.619-15.792 6.377-6.738-1.26-12.453-2.088-12.701-1.841-.448.448.174 17.217.912 24.607l.389 3.893-8.924-.578c-4.908-.318-8.924-.223-8.924.211 0 .601 12.298 15.397 16.891 20.322.614.658 44.595-36.944 46.289-39.576.635-.987-3.957-6.802-13.89-17.592L86.079 24.5l-.039 8.75m2.782 5.204c-.227 3.558-.617 6.671-.867 6.918-.25.246-6.08-.633-12.955-1.955s-13.041-2.406-13.703-2.41c-.828-.005-1.071 1.472-.779 4.743.232 2.612.659 8.948.947 14.079l.524 9.329-7.497-.329c-4.123-.181-7.474-.104-7.447.171.027.275 2.696 3.38 5.93 6.899l5.881 6.4 2.976-2.504c1.637-1.378 11.103-9.607 21.035-18.289 20.491-17.91 19.226-14.92 10.5-24.829l-4.133-4.693-.412 6.47m38.796 11.628c-3.786.516-10.986 2.307-16 3.979-27.432 9.15-47.597 30.633-55.791 59.439-3.232 11.364-3.271 32.527-.08 43.657 9.319 32.497 34.156 55.913 66.18 62.391 12.447 2.518 30.649 1.633 42.073-2.045 14.781-4.758 23.19-9.761 34.365-20.442 3.775-3.608 8.632-9.153 10.793-12.32 4.876-7.147 11.084-19.94 10.085-20.781-.409-.344-16.831-6.872-36.493-14.507-19.662-7.635-35.75-14.177-35.75-14.537 0-.361 15.33-8.405 34.066-17.876 18.736-9.471 34.306-17.845 34.599-18.609 1.396-3.639-13.432-22.748-23.804-30.675-18.222-13.928-42.573-20.627-64.243-17.674m-.579 3.028C99.67 57.27 76.178 74.739 64.25 99.804c-23.217 48.784 5.562 105.999 58.727 116.754 10.766 2.178 28.226 1.509 38.523-1.477 21.748-6.305 41.244-22.3 51.056-41.889 2.014-4.02 3.5-7.429 3.303-7.576-.198-.147-17.61-6.961-38.693-15.143-30.574-11.865-38.025-15.103-36.804-15.996.842-.616 17.305-9.124 36.585-18.907 19.279-9.784 35.052-18.301 35.05-18.929-.006-2.195-8.001-13.144-14.222-19.476-14.927-15.194-33.216-23.364-54.918-24.533-5.147-.277-12.264-.062-15.818.478m6.504 13.395c-8.643 2.251-15.52 11.568-15.537 21.049-.003 1.679 1.134 5.341 2.527 8.137 7.268 14.584 26.481 15.902 35.925 2.464 2.719-3.867 3.042-5.106 3.042-11.655 0-6.532-.327-7.793-3.009-11.609-3.092-4.399-9.44-8.291-14.991-9.191-1.65-.268-5.231.095-7.957.805m-.175 3.583c-4.193 1.215-10.089 7.907-10.933 12.408-1.457 7.766 1.072 13.825 7.657 18.342 2.859 1.961 4.382 2.277 9.451 1.965 7.374-.453 11.869-3.297 14.552-9.204 2.302-5.069 2.638-9.596.408-5.492-4.195 7.718-15.177 8.635-20.97 1.75C131.55 87.5 131 85.744 131 81.768c0-4.632.355-5.415 4.042-8.923 4.123-3.922 3.858-4.36-1.674-2.757" fill="#1976D2" fill-rule="evenodd"/><path fill-opacity=".986" d="M86.64 29.051c-.352 1.759-.64 5.626-.64 8.593 0 5.081-.13 5.364-2.25 4.874-4.939-1.143-23.337-4.512-24.654-4.515-1.17-.002-1.293 2.327-.736 13.997l.669 14H40.874l8.725 10c4.798 5.5 8.886 10 9.084 10C59.605 86 104 46.519 104 45.698c0-.513-3.236-4.593-7.191-9.066l-8.36-9.456c-.933-1.057-1.298-.679-1.809 1.875m2.016 4.403c-.361.94-.656 3.923-.656 6.628C88 43.354 87.581 45 86.748 45c-1.287 0-20.425-3.516-24.56-4.512l-2.312-.557.697 14.284.697 14.285-7.814-.335-7.813-.335 6.281 7.085C55.379 78.812 58.59 82 59.058 82c1.119 0 41.955-35.85 41.898-36.783-.023-.394-2.653-3.587-5.844-7.095-4.682-5.148-5.926-6.048-6.456-4.668m34.413 17.574c-17.291 3.626-30.606 10.649-43.434 22.911-11.44 10.935-19.482 24.668-23.753 40.561-3.011 11.208-3.002 30.63.02 42 7.818 29.415 29.936 52.077 59.647 61.115 7.979 2.427 10.526 2.723 23.451 2.723 12.923 0 15.479-.297 23.5-2.728 15.157-4.594 30.213-13.861 39.54-24.338 8.62-9.683 18.491-27.278 16.363-29.168-.497-.441-16.991-7.055-36.653-14.698-19.662-7.643-35.75-14.16-35.75-14.483 0-.323 15.78-8.584 35.068-18.358 28.427-14.406 34.95-18.083 34.451-19.418-3.841-10.268-21.423-29.073-33.519-35.848-4.125-2.311-11.775-5.645-17-7.41-8.611-2.908-10.81-3.236-23.5-3.499-7.7-.16-15.994.127-18.431.638m1.431 2.118C93.377 58.89 68.803 80.781 58.995 111.5c-3.434 10.753-3.935 30.974-1.066 43 7.122 29.851 30.739 53.874 60.571 61.612 9.538 2.474 27.782 2.952 37 .97 19.876-4.275 38.117-15.932 50.2-32.082 4.08-5.453 10.3-16.794 10.3-18.78 0-.568-6.863-3.708-15.25-6.978l-38.045-14.824c-18.723-7.292-22.511-9.087-21.203-10.043.876-.641 17.321-9.132 36.545-18.871C197.271 105.766 213 97.464 213 97.054c0-.409-1.729-3.401-3.841-6.649-15.863-24.386-42.334-38.663-70.997-38.293-4.764.061-10.912.527-13.662 1.034m8.185 13.871C124.579 69.45 119 77.393 119 86.5c0 19.27 22.927 27.737 35.704 13.184 5.146-5.861 6.38-12.361 3.757-19.794-3.71-10.515-14.943-16.125-25.776-12.873m-1.855 4.01c-5.02 2.652-8.054 7.249-8.611 13.047-.63 6.554.228 9.308 4.305 13.821 4.456 4.932 10.769 6.933 16.48 5.222 7.469-2.238 13.057-8.856 12.933-15.317-.054-2.795-.193-2.981-.906-1.218-1.627 4.022-6.856 7.421-11.358 7.383-5.063-.043-8.162-1.642-10.727-5.532-3.74-5.675-1.724-13.768 4.353-17.473l3.201-1.953-3 .041c-1.65.022-4.651.913-6.67 1.979" fill="#1976D2" fill-rule="evenodd"/></svg>